<svg xmlns="http://www.w3.org/2000/svg" width="92.63" height="37.55" viewBox="0 0 92.63 37.55"><title>muvArtboard 2</title><path d="M29.13,6.35a5.26,5.26,0,1,0-7.93,4.5V22L8.13,5.43H4V26.66a5.26,5.26,0,1,0,5-.12V14.12l14,18v0h3.13V11A5.24,5.24,0,0,0,29.13,6.35Z" style="fill:#fff"/><polygon points="8.13 5.43 9.08 14.12 23.11 32.15 21.2 21.97 8.13 5.43" style="fill:#fff"/><polygon points="8.13 5.41 9.08 14.1 23.11 32.13 21.2 21.95 8.13 5.41" style="fill:#fff"/><path d="M39.38,15.36A4.2,4.2,0,0,0,37,14.68a4.93,4.93,0,0,0-2.38.6,5.74,5.74,0,0,0-1.44,1.14V15h-2V26.54h2V22.22a14.51,14.51,0,0,1,.19-2.92,3.7,3.7,0,0,1,1.24-1.95,3.17,3.17,0,0,1,2.11-.78,2.58,2.58,0,0,1,1.63.49,2.52,2.52,0,0,1,.84,1.48A12.84,12.84,0,0,1,39.38,21v5.54h2v-6a9.08,9.08,0,0,0-.48-3.42A4,4,0,0,0,39.38,15.36Z" style="fill:#fff"/><path d="M49.32,14.68a5.75,5.75,0,0,0-4.44,1.95A6.18,6.18,0,0,0,45,25a6.1,6.1,0,0,0,8.69,0,6.19,6.19,0,0,0,.09-8.39A5.75,5.75,0,0,0,49.32,14.68Zm0,2a3.77,3.77,0,0,1,2.81,1.21,4,4,0,0,1,1.19,2.95,4.21,4.21,0,0,1-.54,2.08,3.81,3.81,0,0,1-1.45,1.48,4.16,4.16,0,0,1-4,0,3.81,3.81,0,0,1-1.45-1.48,4.2,4.2,0,0,1-.54-2.08,4,4,0,0,1,1.18-2.94A3.76,3.76,0,0,1,49.31,16.65Z" style="fill:#fff"/><path d="M66.94,16.45a5.35,5.35,0,0,0-4.08-1.77,5.74,5.74,0,0,0-4.22,1.77,5.88,5.88,0,0,0-1.75,4.27A6,6,0,0,0,58.62,25a5.87,5.87,0,0,0,6.74,1.2,6.08,6.08,0,0,0,1.57-1.13v1.42h2V10.72h-2Zm-1.08,1.38a4.06,4.06,0,0,1,1.17,3,4.25,4.25,0,0,1-.52,2.11A3.81,3.81,0,0,1,65,24.38a4,4,0,0,1-5.55-1.54,4.16,4.16,0,0,1,0-4.15A4,4,0,0,1,63,16.63,3.85,3.85,0,0,1,65.86,17.83Z" style="fill:#fff"/><path d="M82.93,20.86a6.27,6.27,0,0,0-1.28-3.94,5.73,5.73,0,0,0-4.72-2.24,5.55,5.55,0,0,0-4.59,2.19A6.19,6.19,0,0,0,71,20.78,6.26,6.26,0,0,0,72.58,25,5.55,5.55,0,0,0,77,26.82a6.33,6.33,0,0,0,2.28-.39,5.66,5.66,0,0,0,1.82-1.13,6.8,6.8,0,0,0,1.42-1.94l.13-.26L81,22.21l-.14.24a6.35,6.35,0,0,1-1.15,1.49,4,4,0,0,1-1.26.72,4.42,4.42,0,0,1-1.53.27,3.59,3.59,0,0,1-2.71-1.13,4.12,4.12,0,0,1-1.13-2.64h9.88Zm-9.64-1.51a4.11,4.11,0,0,1,1.08-1.76,3.71,3.71,0,0,1,2.58-1A4.09,4.09,0,0,1,78.7,17,3.63,3.63,0,0,1,80,18a4.07,4.07,0,0,1,.67,1.33Z" style="fill:#fff"/><path d="M88.24,19.73a5.53,5.53,0,0,1-1.61-1.09,1.28,1.28,0,0,1-.34-.83,1.11,1.11,0,0,1,.4-.84,1.38,1.38,0,0,1,1-.38,3,3,0,0,1,2,1l.21.21,1.32-1.36L91,16.25a4.77,4.77,0,0,0-3.26-1.57,3.28,3.28,0,0,0-2.37.91,3.07,3.07,0,0,0-.94,2.29A3.16,3.16,0,0,0,85,19.76a5.93,5.93,0,0,0,2.13,1.61,5.84,5.84,0,0,1,1.69,1.1,1.34,1.34,0,0,1,.33.89,1.39,1.39,0,0,1-.5,1.07,1.77,1.77,0,0,1-1.25.47,2.82,2.82,0,0,1-2.08-1.12l-.22-.25L83.85,25l.15.19a4.26,4.26,0,0,0,1.54,1.23,4.46,4.46,0,0,0,1.94.44,3.54,3.54,0,0,0,2.58-1,3.4,3.4,0,0,0,1-2.5,3.17,3.17,0,0,0-.62-1.9A6.57,6.57,0,0,0,88.24,19.73Z" style="fill:#fff"/></svg>