<svg xmlns="http://www.w3.org/2000/svg" xmlns:xlink="http://www.w3.org/1999/xlink" width="92.63" height="37.55" viewBox="0 0 92.63 37.55"><defs><linearGradient id="a" x1="8.23" y1="18.79" x2="23.17" y2="18.79" gradientUnits="userSpaceOnUse"><stop offset="0" stop-color="#006991"/><stop offset="0.15" stop-color="#00709b" stop-opacity="0.9"/><stop offset="0.44" stop-color="#0083b4" stop-opacity="0.62"/><stop offset="0.84" stop-color="#00a1dd" stop-opacity="0.19"/><stop offset="1" stop-color="#00aeef" stop-opacity="0"/></linearGradient><linearGradient id="b" x1="22.53" y1="26.83" x2="15.02" y2="17.97" xlink:href="#a"/></defs><title>muvArtboard 4</title><path d="M29.18,6.38a5.24,5.24,0,1,0-7.91,4.49V22l-13-16.5H4.16V26.64a5.25,5.25,0,1,0,5-.12V14.13l14,18v0h3.12V11A5.22,5.22,0,0,0,29.18,6.38Z" style="fill:#00aeef"/><polygon points="8.23 5.47 9.18 14.13 23.17 32.12 21.27 21.96 8.23 5.47" style="fill:url(#a)"/><polygon points="8.23 5.45 9.18 14.12 23.17 32.1 21.27 21.95 8.23 5.45" style="fill:url(#b)"/><path d="M39.4,15.36a4.19,4.19,0,0,0-2.34-.67,4.92,4.92,0,0,0-2.38.6,5.74,5.74,0,0,0-1.44,1.14V15h-2V26.52h2V22.21a14.46,14.46,0,0,1,.19-2.91,3.69,3.69,0,0,1,1.24-1.94,3.16,3.16,0,0,1,2.1-.78,2.57,2.57,0,0,1,1.63.48,2.51,2.51,0,0,1,.84,1.48A12.8,12.8,0,0,1,39.39,21v5.52h2V20.59a9.07,9.07,0,0,0-.48-3.41A4,4,0,0,0,39.4,15.36Z" style="fill:#006991"/><path d="M49.31,14.69a5.73,5.73,0,0,0-4.43,1.94A6.17,6.17,0,0,0,45,25a6.09,6.09,0,0,0,8.66,0,6.18,6.18,0,0,0,.09-8.37A5.73,5.73,0,0,0,49.31,14.69Zm0,2a3.76,3.76,0,0,1,2.81,1.21,4,4,0,0,1,1.18,2.94,4.19,4.19,0,0,1-.54,2.07,3.8,3.8,0,0,1-1.45,1.47,4.15,4.15,0,0,1-4,0,3.8,3.8,0,0,1-1.45-1.47,4.19,4.19,0,0,1-.54-2.07,4,4,0,0,1,1.18-2.94A3.75,3.75,0,0,1,49.3,16.66Z" style="fill:#006991"/><path d="M66.88,16.46a5.33,5.33,0,0,0-4.07-1.77,5.73,5.73,0,0,0-4.21,1.77,5.86,5.86,0,0,0-1.75,4.26A6,6,0,0,0,58.59,25a5.86,5.86,0,0,0,6.73,1.2,6.06,6.06,0,0,0,1.57-1.13v1.42h2V10.74h-2ZM65.8,17.83a4,4,0,0,1,1.17,3,4.24,4.24,0,0,1-.52,2.1A3.8,3.8,0,0,1,65,24.37a4,4,0,0,1-5.54-1.54,4.15,4.15,0,0,1,0-4.14,4,4,0,0,1,3.5-2.05A3.84,3.84,0,0,1,65.8,17.83Z" style="fill:#006991"/><path d="M82.83,20.86a6.25,6.25,0,0,0-1.27-3.93,5.71,5.71,0,0,0-4.71-2.24,5.54,5.54,0,0,0-4.58,2.19,6.17,6.17,0,0,0-1.34,3.9,6.24,6.24,0,0,0,1.58,4.17,5.54,5.54,0,0,0,4.42,1.86,6.32,6.32,0,0,0,2.27-.39A5.66,5.66,0,0,0,81,25.29a6.79,6.79,0,0,0,1.41-1.94l.13-.26-1.69-.89-.14.24a6.33,6.33,0,0,1-1.14,1.48,4,4,0,0,1-1.25.72,4.42,4.42,0,0,1-1.53.27,3.58,3.58,0,0,1-2.7-1.13A4.1,4.1,0,0,1,73,21.15h9.85Zm-9.61-1.51a4.1,4.1,0,0,1,1.08-1.75,3.69,3.69,0,0,1,2.58-1,4.09,4.09,0,0,1,1.74.39,3.61,3.61,0,0,1,1.32,1,4,4,0,0,1,.66,1.32Z" style="fill:#006991"/><path d="M88.12,19.73a5.5,5.5,0,0,1-1.6-1.09,1.27,1.27,0,0,1-.34-.83,1.11,1.11,0,0,1,.4-.84,1.38,1.38,0,0,1,1-.38,3,3,0,0,1,2,1l.21.21,1.32-1.36-.21-.2a4.76,4.76,0,0,0-3.25-1.56,3.27,3.27,0,0,0-2.36.91,3.07,3.07,0,0,0-.94,2.29,3.15,3.15,0,0,0,.59,1.87A5.91,5.91,0,0,0,87,21.36a5.84,5.84,0,0,1,1.68,1.09,1.34,1.34,0,0,1,.33.89,1.39,1.39,0,0,1-.5,1.06,1.77,1.77,0,0,1-1.25.47,2.82,2.82,0,0,1-2.07-1.12L85,23.51l-1.27,1.44.15.19a4.24,4.24,0,0,0,1.53,1.22,4.45,4.45,0,0,0,1.94.44,3.53,3.53,0,0,0,2.58-1,3.39,3.39,0,0,0,1-2.5,3.17,3.17,0,0,0-.61-1.9A6.55,6.55,0,0,0,88.12,19.73Z" style="fill:#006991"/></svg>